<svg width="31" height="30" viewBox="0 0 31 30" fill="none" xmlns="http://www.w3.org/2000/svg">
<path d="M13.5293 4.82501L2.94177 22.5C2.72348 22.878 2.60798 23.3066 2.60676 23.7432C2.60554 24.1797 2.71864 24.6089 2.93481 24.9882C3.15098 25.3674 3.46268 25.6834 3.83891 25.9048C4.21514 26.1262 4.64277 26.2452 5.07927 26.25H26.2543C26.6908 26.2452 27.1184 26.1262 27.4946 25.9048C27.8709 25.6834 28.1826 25.3674 28.3987 24.9882C28.6149 24.6089 28.728 24.1797 28.7268 23.7432C28.7256 23.3066 28.6101 22.878 28.3918 22.5L17.8043 4.82501C17.5814 4.45764 17.2677 4.15391 16.8933 3.94312C16.5189 3.73232 16.0964 3.62158 15.6668 3.62158C15.2371 3.62158 14.8147 3.73232 14.4403 3.94312C14.0659 4.15391 13.7521 4.45764 13.5293 4.82501Z" stroke="#E5446D" stroke-width="2.5" stroke-linecap="round" stroke-linejoin="round"/>
<path d="M15.6667 11.25V16.25" stroke="#E5446D" stroke-width="2.5" stroke-linecap="round" stroke-linejoin="round"/>
<path d="M15.6667 21.25H15.6792" stroke="#E5446D" stroke-width="2.5" stroke-linecap="round" stroke-linejoin="round"/>
</svg>
