<svg width="40" height="41" viewBox="0 0 40 41" fill="none" xmlns="http://www.w3.org/2000/svg">
<path d="M18.3333 7.16667H6.66659C5.78253 7.16667 4.93468 7.51786 4.30956 8.14298C3.68444 8.7681 3.33325 9.61595 3.33325 10.5V33.8333C3.33325 34.7174 3.68444 35.5652 4.30956 36.1904C4.93468 36.8155 5.78253 37.1667 6.66659 37.1667H29.9999C30.884 37.1667 31.7318 36.8155 32.3569 36.1904C32.9821 35.5652 33.3333 34.7174 33.3333 33.8333V22.1667" stroke="#0D1F2D" stroke-opacity="0.5" stroke-width="3.33333" stroke-linecap="round" stroke-linejoin="round"/>
<path d="M30.8333 4.66664C31.4963 4.0036 32.3956 3.6311 33.3333 3.6311C34.2709 3.6311 35.1702 4.0036 35.8333 4.66664C36.4963 5.32968 36.8688 6.22896 36.8688 7.16664C36.8688 8.10432 36.4963 9.0036 35.8333 9.66664L19.9999 25.5L13.3333 27.1666L14.9999 20.5L30.8333 4.66664Z" stroke="#0D1F2D" stroke-opacity="0.5" stroke-width="3.33333" stroke-linecap="round" stroke-linejoin="round"/>
</svg>
