<svg width="31" height="30" viewBox="0 0 31 30" fill="none" xmlns="http://www.w3.org/2000/svg">
<g clip-path="url(#clip0_112_302)">
<path d="M23.375 10H24.625C25.9511 10 27.2229 10.5268 28.1605 11.4645C29.0982 12.4021 29.625 13.6739 29.625 15C29.625 16.3261 29.0982 17.5979 28.1605 18.5355C27.2229 19.4732 25.9511 20 24.625 20H23.375" stroke="white" stroke-width="2.5" stroke-linecap="round" stroke-linejoin="round"/>
<path d="M3.375 10H23.375V21.25C23.375 22.5761 22.8482 23.8479 21.9105 24.7855C20.9729 25.7232 19.7011 26.25 18.375 26.25H8.375C7.04892 26.25 5.77715 25.7232 4.83947 24.7855C3.90178 23.8479 3.375 22.5761 3.375 21.25V10Z" stroke="white" stroke-width="2.5" stroke-linecap="round" stroke-linejoin="round"/>
<path d="M8.375 1.25V5" stroke="white" stroke-width="2.5" stroke-linecap="round" stroke-linejoin="round"/>
<path d="M13.375 1.25V5" stroke="white" stroke-width="2.5" stroke-linecap="round" stroke-linejoin="round"/>
<path d="M18.375 1.25V5" stroke="white" stroke-width="2.5" stroke-linecap="round" stroke-linejoin="round"/>
</g>
<defs>
<clipPath id="clip0_112_302">
<rect width="30" height="30" fill="white" transform="translate(0.875)"/>
</clipPath>
</defs>
</svg>
